<svg width="110" height="110" viewBox="0 0 110 110" fill="none" xmlns="http://www.w3.org/2000/svg">
<g clip-path="url(#clip0_3828_8877)">
<rect y="35" width="110" height="40" fill="#161619"/>
<path fill-rule="evenodd" clip-rule="evenodd" d="M8 0C3.58172 0 0 3.58172 0 8V102C0 106.418 3.58172 110 8 110H102C106.418 110 110 106.418 110 102V8C110 3.58172 106.418 0 102 0H8ZM40 43C40 41.3431 38.6569 40 37 40H13C11.3431 40 10 41.3431 10 43V70H16V46H34V70H40V46H52V70H58V46H70V67C70 68.6569 71.3431 70 73 70H97C98.6569 70 100 68.6569 100 67V64H76V46H100V43C100 41.3431 98.6569 40 97 40H73C71.3431 40 70 41.3431 70 43C70 41.3431 68.6569 40 67 40H43C41.3431 40 40 41.3431 40 43Z" fill="#FAF8F8"/>
</g>
<defs>
<clipPath id="clip0_3828_8877">
<rect width="110" height="110" fill="white"/>
</clipPath>
</defs>
</svg>
